<svg width="238" height="28" viewBox="0 0 238 28" fill="none" xmlns="http://www.w3.org/2000/svg">
<path d="M23.9181 21.6755H19.9807V12.9459C19.9807 11.7186 19.7652 10.818 19.3343 10.2439C18.9229 9.65005 18.345 9.35313 17.6006 9.35313C16.8367 9.35313 16.1021 9.65995 15.3969 10.2736C14.7113 10.8674 14.2216 11.6493 13.9277 12.6193V21.6755H9.99035V12.9459C9.99035 11.6988 9.77487 10.7883 9.34391 10.2142C8.93254 9.64015 8.35467 9.35313 7.61029 9.35313C6.84633 9.35313 6.11174 9.65005 5.40654 10.2439C4.72093 10.8378 4.23121 11.6197 3.93737 12.5896V21.6755H0V6.11665H3.55539V8.99682C4.14306 7.98727 4.92661 7.21527 5.90606 6.68081C6.8855 6.12655 8.01187 5.84942 9.28515 5.84942C10.5584 5.84942 11.5477 6.16613 12.2529 6.79957C12.9777 7.43301 13.438 8.21492 13.6339 9.14528C14.2607 8.07635 15.0541 7.26476 16.0139 6.7105C16.9934 6.13644 18.0904 5.84942 19.3049 5.84942C20.2647 5.84942 21.0385 6.02757 21.6262 6.38388C22.2334 6.72039 22.7036 7.18558 23.0366 7.77943C23.3696 8.35348 23.5948 9.00672 23.7124 9.73913C23.8495 10.4715 23.9181 11.2139 23.9181 11.9661V21.6755Z" fill="white"/>
<path d="M26.2882 17.0732C26.2882 16.0636 26.5625 15.1827 27.111 14.4305C27.6791 13.6585 28.4626 13.0647 29.4617 12.649C30.4607 12.2333 31.6066 12.0255 32.8995 12.0255C33.5459 12.0255 34.2022 12.0749 34.8682 12.1739C35.5342 12.2729 36.1121 12.4312 36.6018 12.649V11.8176C36.6018 10.8279 36.308 10.0657 35.7203 9.53128C35.1522 8.99682 34.3001 8.72959 33.164 8.72959C32.3216 8.72959 31.5185 8.87805 30.7545 9.17497C29.9906 9.4719 29.1874 9.90739 28.3451 10.4814L27.0816 7.8685C28.1002 7.19548 29.1384 6.6907 30.1962 6.35419C31.2736 6.01767 32.4 5.84942 33.5753 5.84942C35.7693 5.84942 37.4735 6.40368 38.688 7.51219C39.9221 8.62071 40.5392 10.2043 40.5392 12.263V17.2216C40.5392 17.6373 40.6077 17.9343 40.7449 18.1124C40.9016 18.2906 41.1464 18.3994 41.4795 18.439V21.6755C41.1269 21.7349 40.8036 21.7844 40.5098 21.824C40.2356 21.8636 40.0005 21.8834 39.8046 21.8834C39.021 21.8834 38.4236 21.7052 38.0122 21.3489C37.6204 20.9926 37.3756 20.5571 37.2776 20.0424L37.1895 19.2407C36.5235 20.1117 35.6909 20.7847 34.6919 21.2598C33.6929 21.7349 32.6742 21.9724 31.636 21.9724C30.6174 21.9724 29.6967 21.7646 28.874 21.3489C28.0708 20.9134 27.4342 20.3294 26.9641 19.597C26.5135 18.8448 26.2882 18.0035 26.2882 17.0732ZM35.8672 17.8749C36.0827 17.6373 36.259 17.3998 36.3961 17.1622C36.5332 16.9247 36.6018 16.707 36.6018 16.509V14.9353C36.1317 14.7374 35.6224 14.5889 35.0739 14.4899C34.5254 14.3712 34.0063 14.3118 33.5166 14.3118C32.4979 14.3118 31.6556 14.5394 30.9896 14.9947C30.3431 15.4302 30.0199 16.0141 30.0199 16.7466C30.0199 17.1425 30.1277 17.5186 30.3432 17.8749C30.5586 18.2312 30.8721 18.5182 31.2834 18.7359C31.6948 18.9537 32.1845 19.0626 32.7526 19.0626C33.3403 19.0626 33.9181 18.9537 34.4862 18.7359C35.0543 18.4984 35.5146 18.2114 35.8672 17.8749Z" fill="white"/>
<path d="M50.0364 21.9724C49.057 21.9724 48.1559 21.7646 47.3332 21.3489C46.5104 20.9134 45.7954 20.3294 45.1882 19.597C44.5809 18.8646 44.1108 18.0035 43.7778 17.0138C43.4644 16.024 43.3076 14.9749 43.3076 13.8664C43.3076 12.7381 43.4839 11.6889 43.8365 10.719C44.2087 9.74903 44.718 8.89784 45.3645 8.16543C46.0109 7.43301 46.7749 6.86886 47.6564 6.47296C48.5379 6.05726 49.4879 5.84942 50.5066 5.84942C51.6819 5.84942 52.7201 6.12655 53.6212 6.68081C54.5223 7.21527 55.2569 7.92789 55.825 8.81866V6.11665H59.2628V28H55.3254V18.9438C54.1501 20.9629 52.3871 21.9724 50.0364 21.9724ZM51.5056 18.5875C52.0737 18.5875 52.583 18.4786 53.0335 18.2609C53.5037 18.0431 53.9248 17.7462 54.297 17.3701C54.6888 16.9742 55.0316 16.5288 55.3254 16.0339V12.3521C55.2275 11.9166 55.0414 11.5108 54.7672 11.1347C54.5125 10.7586 54.1991 10.432 53.8269 10.1548C53.4743 9.8579 53.0923 9.63026 52.6809 9.4719C52.2696 9.31354 51.8582 9.23436 51.4468 9.23436C50.8396 9.23436 50.2813 9.36302 49.772 9.62036C49.2823 9.87769 48.8513 10.234 48.4791 10.6893C48.1069 11.1248 47.8229 11.6295 47.627 12.2036C47.4311 12.7579 47.3332 13.3517 47.3332 13.9852C47.3332 14.8363 47.5095 15.6083 47.8621 16.3012C48.2147 16.994 48.7044 17.5482 49.3312 17.9639C49.9581 18.3796 50.6829 18.5875 51.5056 18.5875Z" fill="white"/>
<path d="M62.6945 15.8558V6.11665H66.6318V14.9947C66.6318 16.1824 66.8473 17.0831 67.2783 17.6967C67.7092 18.2906 68.3459 18.5875 69.1882 18.5875C69.6975 18.5875 70.197 18.4885 70.6868 18.2906C71.1961 18.0728 71.6564 17.7561 72.0678 17.3404C72.4987 16.9247 72.8611 16.4001 73.155 15.7667V6.11665H77.0923V17.2216C77.0923 17.6373 77.1609 17.9343 77.298 18.1124C77.4547 18.2906 77.6996 18.3994 78.0326 18.439V21.6755C77.6408 21.7349 77.3078 21.7745 77.0336 21.7943C76.7789 21.8339 76.5438 21.8537 76.3284 21.8537C75.6232 21.8537 75.0453 21.6953 74.5947 21.3786C74.1638 21.0421 73.9091 20.5868 73.8308 20.0127L73.7426 18.7656C73.057 19.8148 72.1755 20.6165 71.0981 21.1707C70.0207 21.7052 68.8356 21.9724 67.5427 21.9724C65.956 21.9724 64.7513 21.4578 63.9286 20.4284C63.1058 19.3793 62.6945 17.8551 62.6945 15.8558Z" fill="white"/>
<path d="M81.0051 21.6755V6.11665H84.9425V21.6755H81.0051ZM81.0051 3.9491V0H84.9425V3.9491H81.0051Z" fill="white"/>
<path d="M102.804 21.6755H98.8668V12.9459C98.8668 11.6988 98.6513 10.7883 98.2204 10.2142C97.7894 9.64015 97.1919 9.35313 96.428 9.35313C95.8991 9.35313 95.3604 9.49169 94.8119 9.76882C94.283 10.046 93.803 10.432 93.3721 10.9268C92.9411 11.4019 92.6277 11.9562 92.4318 12.5896V21.6755H88.4944V6.11665H92.0498V8.99682C92.4416 8.32379 92.9411 7.75963 93.5484 7.30435C94.1556 6.82927 94.8511 6.47296 95.6346 6.23542C96.4378 5.97808 97.2801 5.84942 98.1616 5.84942C99.1214 5.84942 99.905 6.02757 100.512 6.38388C101.139 6.72039 101.609 7.18558 101.923 7.77943C102.256 8.35348 102.481 9.00672 102.598 9.73913C102.736 10.4715 102.804 11.2139 102.804 11.9661V21.6755Z" fill="white"/>
<path d="M106.228 21.6755V6.11665H110.165V21.6755H106.228ZM106.228 3.9491V0H110.165V3.9491H106.228Z" fill="white"/>
<path d="M128.027 21.6755H124.089V12.9459C124.089 11.6988 123.874 10.7883 123.443 10.2142C123.012 9.64015 122.415 9.35313 121.651 9.35313C121.122 9.35313 120.583 9.49169 120.035 9.76882C119.506 10.046 119.026 10.432 118.595 10.9268C118.164 11.4019 117.85 11.9562 117.654 12.5896V21.6755H113.717V6.11665H117.272V8.99682C117.664 8.32379 118.164 7.75963 118.771 7.30435C119.378 6.82927 120.074 6.47296 120.857 6.23542C121.66 5.97808 122.503 5.84942 123.384 5.84942C124.344 5.84942 125.128 6.02757 125.735 6.38388C126.362 6.72039 126.832 7.18558 127.145 7.77943C127.478 8.35348 127.704 9.00672 127.821 9.73913C127.958 10.4715 128.027 11.2139 128.027 11.9661V21.6755Z" fill="white"/>
<path d="M145.76 21.6755H141.823V12.9459C141.823 11.7384 141.588 10.8378 141.118 10.2439C140.667 9.65005 140.04 9.35313 139.237 9.35313C138.767 9.35313 138.267 9.49169 137.738 9.76882C137.21 10.046 136.73 10.432 136.299 10.9268C135.887 11.4019 135.584 11.9562 135.388 12.5896V21.6755H131.45V0H135.388V8.99682C135.956 8.00707 136.73 7.23506 137.709 6.68081C138.689 6.12655 139.756 5.84942 140.912 5.84942C141.911 5.84942 142.724 6.02757 143.351 6.38388C143.978 6.72039 144.467 7.18558 144.82 7.77943C145.172 8.35348 145.417 9.00672 145.554 9.73913C145.692 10.4517 145.76 11.1941 145.76 11.9661V21.6755Z" fill="white"/>
<path d="M148.126 17.0732C148.126 16.0636 148.4 15.1827 148.949 14.4305C149.517 13.6585 150.3 13.0647 151.299 12.649C152.298 12.2333 153.444 12.0255 154.737 12.0255C155.384 12.0255 156.04 12.0749 156.706 12.1739C157.372 12.2729 157.95 12.4312 158.439 12.649V11.8176C158.439 10.8279 158.146 10.0657 157.558 9.53128C156.99 8.99682 156.138 8.72959 155.002 8.72959C154.159 8.72959 153.356 8.87805 152.592 9.17497C151.828 9.4719 151.025 9.90739 150.183 10.4814L148.919 7.8685C149.938 7.19548 150.976 6.6907 152.034 6.35419C153.111 6.01767 154.238 5.84942 155.413 5.84942C157.607 5.84942 159.311 6.40368 160.526 7.51219C161.76 8.62071 162.377 10.2043 162.377 12.263V17.2216C162.377 17.6373 162.445 17.9343 162.583 18.1124C162.739 18.2906 162.984 18.3994 163.317 18.439V21.6755C162.965 21.7349 162.641 21.7844 162.347 21.824C162.073 21.8636 161.838 21.8834 161.642 21.8834C160.859 21.8834 160.261 21.7052 159.85 21.3489C159.458 20.9926 159.213 20.5571 159.115 20.0424L159.027 19.2407C158.361 20.1117 157.529 20.7847 156.53 21.2598C155.531 21.7349 154.512 21.9724 153.474 21.9724C152.455 21.9724 151.534 21.7646 150.712 21.3489C149.909 20.9134 149.272 20.3294 148.802 19.597C148.351 18.8448 148.126 18.0035 148.126 17.0732ZM157.705 17.8749C157.92 17.6373 158.097 17.3998 158.234 17.1622C158.371 16.9247 158.439 16.707 158.439 16.509V14.9353C157.969 14.7374 157.46 14.5889 156.912 14.4899C156.363 14.3712 155.844 14.3118 155.354 14.3118C154.336 14.3118 153.493 14.5394 152.827 14.9947C152.181 15.4302 151.858 16.0141 151.858 16.7466C151.858 17.1425 151.965 17.5186 152.181 17.8749C152.396 18.2312 152.71 18.5182 153.121 18.7359C153.532 18.9537 154.022 19.0626 154.59 19.0626C155.178 19.0626 155.756 18.9537 156.324 18.7359C156.892 18.4984 157.352 18.2114 157.705 17.8749Z" fill="white"/>
<path d="M173.526 21.6755V6.20573H175.525V21.6755H173.526ZM173.526 2.96925V0H175.525V2.96925H173.526Z" fill="white"/>
<path d="M178.897 13.9852C178.897 12.5203 179.191 11.1842 179.778 9.97667C180.386 8.74938 181.218 7.76953 182.276 7.03711C183.334 6.3047 184.539 5.93849 185.89 5.93849C187.164 5.93849 188.3 6.28491 189.299 6.97773C190.317 7.65076 191.111 8.47225 191.679 9.4422V0H193.677V19.2407C193.677 19.5178 193.736 19.7257 193.853 19.8643C193.971 19.983 194.147 20.0523 194.382 20.0721V21.6755C193.99 21.7349 193.687 21.7547 193.471 21.7349C193.06 21.7151 192.697 21.5468 192.384 21.2301C192.071 20.9134 191.914 20.567 191.914 20.1909V18.6766C191.307 19.6861 190.484 20.4878 189.446 21.0817C188.407 21.6755 187.33 21.9724 186.213 21.9724C185.156 21.9724 184.176 21.7547 183.275 21.3192C182.394 20.8837 181.62 20.2899 180.954 19.5376C180.307 18.7854 179.798 17.9343 179.426 16.9841C179.073 16.0141 178.897 15.0145 178.897 13.9852ZM191.679 16.3605V11.5801C191.424 10.8674 191.013 10.2241 190.445 9.65005C189.877 9.0562 189.23 8.59102 188.505 8.25451C187.8 7.8982 187.095 7.72004 186.39 7.72004C185.567 7.72004 184.823 7.8982 184.157 8.25451C183.491 8.59102 182.913 9.0562 182.423 9.65005C181.953 10.2439 181.59 10.9169 181.336 11.6691C181.081 12.4213 180.954 13.1934 180.954 13.9852C180.954 14.8165 181.091 15.6083 181.365 16.3605C181.659 17.1128 182.07 17.7858 182.599 18.3796C183.128 18.9537 183.735 19.3991 184.421 19.7158C185.107 20.0325 185.851 20.1909 186.654 20.1909C187.163 20.1909 187.692 20.0919 188.241 19.894C188.789 19.696 189.309 19.4288 189.798 19.0923C190.308 18.7359 190.729 18.3203 191.062 17.8452C191.395 17.3701 191.6 16.8752 191.679 16.3605Z" fill="white"/>
<path d="M204.815 21.9724C203.718 21.9724 202.7 21.7646 201.759 21.3489C200.819 20.9134 200.006 20.3294 199.32 19.597C198.635 18.8448 198.096 17.9837 197.704 17.0138C197.332 16.0438 197.146 15.0046 197.146 13.8961C197.146 12.451 197.469 11.1248 198.116 9.91728C198.782 8.70979 199.693 7.74973 200.848 7.03711C202.004 6.3047 203.317 5.93849 204.786 5.93849C206.294 5.93849 207.607 6.3047 208.723 7.03711C209.859 7.76953 210.751 8.73948 211.397 9.94698C212.043 11.1347 212.367 12.4411 212.367 13.8664C212.367 14.0247 212.367 14.1831 212.367 14.3415C212.367 14.48 212.357 14.5889 212.337 14.6681H199.232C199.33 15.7766 199.634 16.7663 200.143 17.6373C200.672 18.4885 201.348 19.1714 202.171 19.6861C203.013 20.181 203.924 20.4284 204.903 20.4284C205.902 20.4284 206.843 20.1711 207.724 19.6564C208.625 19.1417 209.252 18.4687 209.605 17.6373L211.338 18.1124C211.025 18.8448 210.545 19.508 209.899 20.1018C209.252 20.6957 208.488 21.1608 207.607 21.4973C206.745 21.8141 205.814 21.9724 204.815 21.9724ZM199.174 13.2131H210.486C210.408 12.0848 210.104 11.0951 209.575 10.2439C209.066 9.39272 208.39 8.72959 207.548 8.25451C206.725 7.75963 205.814 7.51219 204.815 7.51219C203.816 7.51219 202.905 7.75963 202.083 8.25451C201.26 8.72959 200.584 9.40261 200.055 10.2736C199.546 11.1248 199.252 12.1046 199.174 13.2131Z" fill="white"/>
<path d="M214.215 17.2216C214.215 16.2517 214.49 15.4203 215.038 14.7275C215.587 14.0148 216.341 13.4705 217.301 13.0944C218.28 12.6985 219.406 12.5005 220.68 12.5005C221.424 12.5005 222.198 12.5599 223.001 12.6787C223.804 12.7975 224.519 12.9756 225.146 13.2131V11.9067C225.146 10.6002 224.764 9.56098 224 8.78897C223.236 8.01697 222.178 7.63096 220.827 7.63096C220.004 7.63096 219.191 7.78932 218.388 8.10604C217.604 8.40297 216.781 8.84836 215.92 9.4422L215.156 8.01697C216.155 7.32414 217.134 6.80947 218.094 6.47296C219.054 6.11665 220.033 5.93849 221.032 5.93849C222.913 5.93849 224.402 6.48286 225.499 7.57158C226.596 8.6603 227.144 10.1647 227.144 12.0848V19.2407C227.144 19.5178 227.203 19.7257 227.32 19.8643C227.438 19.983 227.624 20.0523 227.879 20.0721V21.6755C227.663 21.6953 227.477 21.7151 227.32 21.7349C227.164 21.7547 227.046 21.7547 226.968 21.7349C226.478 21.7151 226.106 21.5567 225.851 21.2598C225.596 20.9629 225.459 20.6462 225.44 20.3096L225.41 19.1813C224.725 20.0721 223.834 20.7649 222.737 21.2598C221.64 21.7349 220.523 21.9724 219.387 21.9724C218.407 21.9724 217.516 21.7646 216.713 21.3489C215.929 20.9134 215.312 20.3393 214.862 19.6267C214.431 18.8943 214.215 18.0926 214.215 17.2216ZM224.47 18.4093C224.686 18.1322 224.852 17.865 224.97 17.6076C225.087 17.3503 225.146 17.1227 225.146 16.9247V14.6681C224.48 14.4107 223.785 14.2128 223.06 14.0742C222.355 13.9357 221.64 13.8664 220.915 13.8664C219.485 13.8664 218.329 14.1534 217.448 14.7275C216.566 15.3015 216.125 16.0834 216.125 17.0732C216.125 17.6472 216.272 18.1916 216.566 18.7063C216.86 19.2011 217.291 19.6168 217.859 19.9533C218.427 20.2701 219.093 20.4284 219.857 20.4284C220.817 20.4284 221.708 20.2404 222.531 19.8643C223.373 19.4882 224.02 19.0032 224.47 18.4093Z" fill="white"/>
<path d="M231.549 0H233.547V18.1718C233.547 18.9438 233.684 19.4486 233.959 19.6861C234.233 19.9236 234.566 20.0424 234.958 20.0424C235.31 20.0424 235.663 20.0028 236.016 19.9236C236.368 19.8445 236.672 19.7653 236.926 19.6861L237.279 21.3192C236.907 21.4776 236.446 21.6062 235.898 21.7052C235.369 21.8042 234.909 21.8537 234.517 21.8537C233.616 21.8537 232.891 21.5864 232.343 21.052C231.814 20.5175 231.549 19.7851 231.549 18.8547V0Z" fill="white"/>
</svg>
